<?xml version="1.0" encoding="UTF-8"?><svg id="Layer_1" xmlns="http://www.w3.org/2000/svg" viewBox="0 0 15.73 21"><defs><style>.cls-1{fill:#fff;}</style></defs><path id="Icon_open-british-pound" class="cls-1" d="M7.86,0c-1.52-.03-2.97,.63-3.93,1.81-.88,1.18-1.34,2.62-1.31,4.09,.07,1.55,.29,3.08,.65,4.59H0v2.62H3.2c-.5,1.68-1.47,3.19-2.78,4.35l-.42,.34v3.2H15.73v-2.62H2.86c1.39-1.49,2.41-3.28,2.96-5.24h4.67v-2.62H5.98c-.21-1.78-.73-3.25-.73-4.59-.03-.88,.22-1.75,.73-2.46,.45-.57,1.16-.88,1.89-.81,.72-.06,1.43,.17,1.97,.65,.48,.54,.72,1.25,.65,1.97h2.62c.06-1.42-.44-2.8-1.39-3.85C10.67,.45,9.28-.05,7.86,.03v-.03Z"/></svg>